<?xml version="1.0" encoding="UTF-8" standalone="no"?>
<!-- Created with Inkscape (http://www.inkscape.org/) -->

<svg
   width="75mm"
   height="75mm"
   viewBox="0 0 75 75"
   version="1.1"
   id="svg1"
   xml:space="preserve"
   xmlns="http://www.w3.org/2000/svg"
   xmlns:svg="http://www.w3.org/2000/svg"><defs
     id="defs1" /><g
     id="layer1"
     transform="translate(-77.01358,-160.69258)"><rect
       style="fill:#182b53;fill-opacity:1;stroke:none;stroke-width:2.09814;stroke-linejoin:round;stroke-dasharray:none"
       id="rect3"
       width="75"
       height="75"
       x="77.01358"
       y="160.69258" /><rect
       style="display:none;fill:#182b53;fill-opacity:1;stroke:none;stroke-width:0.742605;stroke-linejoin:round;stroke-dasharray:none"
       id="rect3-2"
       width="29.460075"
       height="23.918783"
       x="99.789101"
       y="204.23805" /><g
       id="g4"
       transform="translate(-1.1223373,-3.1750001)"><rect
         style="fill:#182c51;fill-opacity:1;stroke:#ffffff;stroke-width:5;stroke-linejoin:round;stroke-dasharray:none"
         id="rect1"
         width="54.796692"
         height="40.890583"
         x="88.237572"
         y="172.00533"
         ry="1.3243845"
         rx="1.3243914" /><g
         id="g2"><rect
           style="fill:#ffffff;fill-opacity:1;stroke:none;stroke-width:23.4716;stroke-linejoin:round;stroke-dasharray:none"
           id="rect2"
           width="19.803972"
           height="7.548862"
           x="93.277023"
           y="176.9718"
           rx="0"
           ry="0" /><rect
           style="fill:#ffffff;fill-opacity:1;stroke:none;stroke-width:23.4716;stroke-linejoin:round;stroke-dasharray:none"
           id="rect2-9"
           width="19.803972"
           height="7.548862"
           x="93.277023"
           y="185.46698"
           rx="0"
           ry="0" /><rect
           style="fill:#ffffff;fill-opacity:1;stroke:none;stroke-width:23.4716;stroke-linejoin:round;stroke-dasharray:none"
           id="rect2-9-6"
           width="19.803972"
           height="7.548862"
           x="93.277023"
           y="193.96216"
           rx="0"
           ry="0" /><rect
           style="fill:#ffffff;fill-opacity:1;stroke:none;stroke-width:15.3941;stroke-linejoin:round;stroke-dasharray:none"
           id="rect2-5-6"
           width="5.2439032"
           height="12.263225"
           x="117.50177"
           y="189.23033"
           rx="0"
           ry="0" /><rect
           style="fill:#ffffff;fill-opacity:1;stroke:none;stroke-width:18.0017;stroke-linejoin:round;stroke-dasharray:none"
           id="rect2-5-6-0"
           width="5.2439032"
           height="16.7696"
           x="123.5653"
           y="184.72395"
           rx="0"
           ry="0" /><rect
           style="fill:#ffffff;fill-opacity:1;stroke:none;stroke-width:10.3453;stroke-linejoin:round;stroke-dasharray:none"
           id="rect2-5-6-0-4"
           width="5.2439032"
           height="5.5383253"
           x="129.6288"
           y="195.95523"
           rx="0"
           ry="0" /><ellipse
           style="fill:#ffffff;fill-opacity:1;stroke:none;stroke-width:25.6;stroke-linejoin:round;stroke-dasharray:none"
           id="path2"
           cx="134.59128"
           cy="179.70335"
           rx="2.3176849"
           ry="2.0693614" /></g><path
         style="fill:#182b53;fill-opacity:1;stroke:none;stroke-width:0.962727;stroke-linejoin:round;stroke-dasharray:none"
         d="m 103.8744,206.16689 c -4.183815,7.01734 -2.78913,12.62625 -2.78913,20.71973 0,0 2.16397,-3.90068 4.18369,-3.90173 2.11359,-0.001 4.3829,4.10095 4.3829,4.10095 0,0 2.30305,-4.10319 4.18368,-4.10095 1.97445,0.002 4.38292,4.30018 4.38292,4.30018 0,0 2.06092,-4.2064 3.98445,-4.30018 1.92811,-0.094 4.38291,3.90173 4.38291,3.90173 0,0 -1.06479,-9.94497 -4.9e-4,-14.7425 0.47618,-2.14652 2.78949,-5.97723 2.78949,-5.97723 z"
         id="path3-1" /><rect
         style="display:inline;fill:#000000;fill-opacity:1;stroke:none;stroke-width:17.5797;stroke-linejoin:round;stroke-dasharray:none"
         id="rect2-1"
         width="28.143316"
         height="2.9798796"
         x="101.56426"
         y="205.51172"
         rx="0"
         ry="0" /><path
         style="fill:#ffffff;fill-opacity:1;stroke:#ffffff;stroke-width:0.8;stroke-linejoin:round;stroke-dasharray:none"
         d="m 105.30898,207.56451 c -3.47663,5.83122 -2.31769,10.21003 -2.31769,16.93549 0,0 1.7982,-2.95932 3.47653,-2.96019 1.75634,-9.1e-4 3.64207,2.96019 3.64207,2.96019 0,0 1.91377,-2.96205 3.47653,-2.96019 1.64071,0.002 3.64208,2.96019 3.64208,2.96019 0,0 1.71257,-2.88226 3.31097,-2.96019 1.60221,-0.0781 3.64208,2.96019 3.64208,2.96019 0,0 -0.88481,-7.98196 -4.1e-4,-11.96858 0.39569,-1.7837 2.318,-4.96691 2.318,-4.96691 z"
         id="path3" /><path
         style="fill:#ffffff;fill-opacity:1;stroke:#000000;stroke-width:1.2;stroke-linecap:round;stroke-linejoin:miter;stroke-dasharray:none"
         d="m 106.55845,209.61342 h 16.50026"
         id="path4" /><path
         style="fill:#ffffff;fill-opacity:1;stroke:#000000;stroke-width:1.2;stroke-linecap:round;stroke-linejoin:miter;stroke-dasharray:none"
         d="m 105.53773,212.57299 h 16.50026"
         id="path4-8" /><path
         style="fill:#ffffff;fill-opacity:1;stroke:#000000;stroke-width:1.2;stroke-linecap:round;stroke-linejoin:miter;stroke-dasharray:none"
         d="m 105.02129,215.833 h 16.50026"
         id="path4-3" /><path
         style="fill:#ffffff;fill-opacity:1;stroke:#000000;stroke-width:1.2;stroke-linecap:round;stroke-linejoin:miter;stroke-dasharray:none"
         d="M 104.76944,219.02131 H 121.2697"
         id="path4-3-5" /></g><text
       xml:space="preserve"
       style="font-weight:bold;font-size:9.87778px;font-family:Courier;-inkscape-font-specification:'Courier Bold';text-align:start;writing-mode:lr-tb;direction:ltr;text-anchor:start;fill:#ffffff;fill-opacity:1;stroke:none;stroke-width:1.2;stroke-linecap:round;stroke-linejoin:miter;stroke-dasharray:none"
       x="91.490349"
       y="232.36385"
       id="text4"><tspan
         id="tspan4"
         style="font-style:normal;font-variant:normal;font-weight:bold;font-stretch:normal;font-size:9.87778px;font-family:Arial;-inkscape-font-specification:'Arial Bold';stroke-width:1.2"
         x="91.490349"
         y="232.36385">OpenKDS</tspan></text></g></svg>
